# xmcd
#
# Track frame offsets:
#	150
#	29600
#	53510
#	72952
#	90488
#	116082
#	139636
#	162646
#	190176
#	214870
#	240938
#	275617
#	299983
#	321708
#	340956
#
# Disc length: 4795 seconds
#
# Revision: 0
# Processed by: cddbd v1.5PL3 Copyright (c) Steve Scherf et al.
# Submitted via: EasyCDDAExtractor 4.6.9.1
#
DISCID=f112b90f
DTITLE=ария
DYEAR=1900
DGENRE=
TTITLE0=колизей
TTITLE1=что вы зделали с вашей мечтой
TTITLE2=патриот
TTITLE3=беспечный ангел
TTITLE4=там высоко
TTITLE5=пробил час
TTITLE6=штиль (дуэт с udo)
TTITLE7=бой продолжается
TTITLE8=торрео
TTITLE9=потерянный рай
TTITLE10=кровь за кровь
TTITLE11=осколок льда 
TTITLE12=закат
TTITLE13=король дороги
TTITLE14=бой продолжается1
EXTD=
EXTT0=
EXTT1=
EXTT2=
EXTT3=
EXTT4=
EXTT5=
EXTT6=
EXTT7=
EXTT8=
EXTT9=
EXTT10=
EXTT11=
EXTT12=
EXTT13=
EXTT14=
PLAYORDER=
